HIERARCHY
ROOT Hips
{
 OFFSET 0.000000 0.000000 0.000000
 CHANNELS 6 Xposition Yposition Zposition Yrotation Xrotation Zrotation
 JOINT Chest
 {
  OFFSET 0.000000 9.585900 0.002600
  CHANNELS 3 Yrotation Xrotation Zrotation
  JOINT Chest2
  {
   OFFSET 0.000000 9.601200 -0.005300
   CHANNELS 3 Yrotation Xrotation Zrotation
   JOINT Chest3
   {
    OFFSET 0.000000 9.561800 0.000000
    CHANNELS 3 Yrotation Xrotation Zrotation
    JOINT Chest4
    {
     OFFSET 0.000000 9.552100 0.000000
     CHANNELS 3 Yrotation Xrotation Zrotation
     JOINT Neck
     {
      OFFSET 0.000000 14.453000 0.000000
      CHANNELS 3 Yrotation Xrotation Zrotation
      JOINT Head
      {
       OFFSET 0.000000 8.936500 -0.011300
       CHANNELS 3 Yrotation Xrotation Zrotation
       End Site
       {
        OFFSET 0.000000 17.073600 -0.006000
       }
      }
     }
     JOINT RightCollar
     {
      OFFSET -2.921100 9.558500 0.000000
      CHANNELS 3 Yrotation Xrotation Zrotation
      JOINT RightShoulder
      {
       OFFSET -13.519700 0.000000 0.000000
       CHANNELS 3 Yrotation Xrotation Zrotation
       JOINT RightElbow
       {
        OFFSET 0.000000 -29.696600 0.000000
        CHANNELS 3 Yrotation Xrotation Zrotation
        JOINT RightWrist
        {
         OFFSET 0.000000 -24.004700 0.000000
         CHANNELS 3 Yrotation Xrotation Zrotation
         End Site
         {
          OFFSET 0.000000 -17.728500 0.000000
         }
        }
       }
      }
     }
     JOINT LeftCollar
     {
      OFFSET 2.921100 9.558500 0.000000
      CHANNELS 3 Yrotation Xrotation Zrotation
      JOINT LeftShoulder
      {
       OFFSET 13.519700 0.000000 0.000000
       CHANNELS 3 Yrotation Xrotation Zrotation
       JOINT LeftElbow
       {
        OFFSET 0.000000 -29.696600 0.000000
        CHANNELS 3 Yrotation Xrotation Zrotation
        JOINT LeftWrist
        {
         OFFSET 0.000000 -24.004700 0.000000
         CHANNELS 3 Yrotation Xrotation Zrotation
         End Site
         {
          OFFSET 0.000000 -17.728500 0.000000
         }
        }
       }
      }
     }
    }
   }
  }
 }
 JOINT RightHip
 {
  OFFSET -7.771700 -0.012900 -0.001300
  CHANNELS 3 Yrotation Xrotation Zrotation
  JOINT RightKnee
  {
   OFFSET 0.000000 -40.869800 0.001200
   CHANNELS 3 Yrotation Xrotation Zrotation
   JOINT RightAnkle
   {
    OFFSET 0.000000 -39.717900 0.002100
    CHANNELS 3 Yrotation Xrotation Zrotation
    JOINT RightToe
    {
     OFFSET 0.000000 -4.965400 11.033500
     CHANNELS 3 Yrotation Xrotation Zrotation
     End Site
     {
      OFFSET 0.000000 -1.423100 5.872300
     }
    }
   }
  }
 }
 JOINT LeftHip
 {
  OFFSET 7.771700 -0.012900 -0.001300
  CHANNELS 3 Yrotation Xrotation Zrotation
  JOINT LeftKnee
  {
   OFFSET 0.000000 -40.869800 0.001200
   CHANNELS 3 Yrotation Xrotation Zrotation
   JOINT LeftAnkle
   {
    OFFSET 0.000000 -39.717900 0.002100
    CHANNELS 3 Yrotation Xrotation Zrotation
    JOINT LeftToe
    {
     OFFSET 0.000000 -4.965400 11.033500
     CHANNELS 3 Yrotation Xrotation Zrotation
     End Site
     {
      OFFSET 0.000000 -1.423100 5.872300
     }
    }
   }
  }
 }
}
MOTION
Frames: 11
Frame Time: 0.008333
0.000000 85.388000 0.000000 0.000000 -5.767877 0.000000 0.000000 11.653817 0.000000 0.000000 -5.885947 0.000000 0.000000 -0.000000 0.000000 0.000000 -0.000000 0.000000 0.000000 12.528835 0.000000 0.000000 0.711642 0.000000 0.000000 -0.000000 0.000000 0.000000 0.000000 -90.000000 0.000000 -2.309062 0.000000 0.000000 2.309062 0.000000 0.000000 -0.000000 0.000000 0.000000 -0.000000 90.000000 0.000000 -2.309062 0.000000 0.000000 2.309062 0.000000 0.000000 8.520406 0.000000 0.000000 1.905762 0.000000 -0.000000 -4.658285 0.000000 0.000000 -0.000000 0.000000 0.000000 8.520406 0.000000 0.000000 1.905762 0.000000 -0.000000 -4.658285 0.000000 0.000000 -0.000000 0.000000
-233.633225 57.762296 -80.234853 161.341991 -7.513425 0.720591 2.452251 7.450616 1.386505 0.101731 0.329207 0.041451 0.176740 0.645907 0.025634 2.064822 7.061046 0.635892 0.245616 15.123949 -1.003630 0.858710 -7.783190 -1.940640 2.868061 7.483955 1.016447 -0.651048 -7.724356 -8.941877 -71.265915 -83.303983 97.671589 -1.565111 7.174837 -27.284211 -5.508297 7.069749 -2.641337 12.201131 -4.381057 1.755589 128.299349 -85.661729 -156.124576 -5.155186 10.650518 9.247638 -17.396556 -64.137692 7.579442 -36.789167 72.738324 -37.664039 -4.297825 -8.815337 -1.322648 -0.276360 0.844617 -0.099206 0.481004 -66.784700 14.419798 43.406147 64.924885 37.030702 -17.496136 -9.283929 3.565934 -0.262737 -1.192791 -0.002270
-233.635320 57.762217 -80.238877 161.345752 -7.517438 0.722644 2.448481 7.432881 1.401827 0.101723 0.323076 0.039531 0.174210 0.645013 0.028714 2.053030 7.031689 0.642357 0.280203 15.109876 -0.999887 0.909609 -7.767022 -1.961938 2.870306 7.476628 1.017155 -0.653813 -7.741269 -8.927621 -71.297805 -83.305451 97.698878 -1.564049 7.172217 -27.276704 -5.500519 7.087449 -2.658931 12.212845 -4.465942 1.724579 128.227415 -85.671280 -156.031502 -5.151467 10.642055 9.251389 -17.403734 -64.133333 7.572049 -36.772767 72.746099 -37.648250 -4.295656 -8.821659 -1.328441 -0.286562 0.848017 -0.107809 0.606263 -66.789717 14.339592 43.355959 64.938518 36.982217 -17.531196 -9.243439 3.563930 -0.254320 -1.196389 0.012263
-233.636542 57.762193 -80.243843 161.355872 -7.528457 0.720734 2.440136 7.417304 1.417614 0.099941 0.334948 0.032526 0.172872 0.600140 0.048312 2.040538 7.031487 0.640545 0.319774 15.099274 -0.997567 0.968197 -7.743112 -1.984195 2.872891 7.490110 1.011923 -0.662214 -7.774447 -8.909821 -71.346406 -83.309205 97.746082 -1.561673 7.165894 -27.267999 -5.485444 7.055520 -2.659281 12.224627 -4.493500 1.693174 128.139034 -85.679496 -155.927697 -5.147451 10.634336 9.247523 -17.413986 -64.121579 7.566673 -36.791164 72.748607 -37.665623 -4.301769 -8.828063 -1.335458 -0.284848 0.848327 -0.105853 0.657113 -66.782418 14.303893 43.323579 64.944103 36.953654 -17.547264 -9.204779 3.547485 -0.226860 -1.158242 -0.003520
-233.635631 57.762177 -80.249090 161.373674 -7.546804 0.708284 2.426540 7.382283 1.456040 0.096244 0.373151 0.012946 0.172081 0.606125 0.044782 2.033437 6.981793 0.658968 0.336524 15.130518 -1.010218 1.054441 -7.754023 -1.998742 2.875110 7.533675 0.997196 -0.676449 -7.836363 -8.883358 -71.439088 -83.315993 97.838606 -1.558018 7.160431 -27.255025 -5.471084 7.027608 -2.660091 12.224708 -4.453275 1.677538 128.712267 -85.636685 -156.476944 -5.128636 10.678734 9.224727 -17.446961 -64.099540 7.575708 -36.824044 72.756352 -37.689337 -4.307273 -8.842667 -1.348683 -0.279175 0.848518 -0.102483 0.670959 -66.767863 14.298845 43.297144 64.947420 36.929564 -17.565265 -9.164730 3.531975 -0.214179 -1.174941 0.014068
-233.639117 57.761547 -80.251247 161.389142 -7.542000 0.718912 2.410374 7.364431 1.449356 0.098833 0.328224 0.031196 0.167675 0.631028 0.034480 2.030015 6.987531 0.656635 0.353542 15.132630 -1.010943 1.145790 -7.755389 -2.014428 2.876905 7.503646 1.004476 -0.696119 -7.849366 -8.870394 -71.586723 -83.325307 97.988633 -1.551151 7.156166 -27.238570 -5.458071 6.992902 -2.649861 12.222981 -4.435606 1.662066 129.248789 -85.598063 -156.988728 -5.133250 10.644724 9.220580 -17.451960 -64.104954 7.556640 -36.811602 72.759385 -37.677792 -4.314239 -8.856376 -1.356322 -0.273862 0.858640 -0.097947 0.711190 -66.773935 14.255460 43.325041 64.935876 36.933385 -17.574175 -9.109046 3.540025 -0.225528 -1.203801 0.016514
-233.641298 57.760766 -80.252717 161.395310 -7.539557 0.727073 2.404078 7.348710 1.446253 0.101527 0.311852 0.035646 0.164943 0.628162 0.036805 2.026781 6.993751 0.655097 0.392543 15.115129 -1.002771 1.162319 -7.721152 -2.026692 2.876307 7.476913 1.010213 -0.718012 -7.859516 -8.857393 -71.759425 -83.337400 98.163676 -1.542710 7.150141 -27.219039 -5.442098 6.959914 -2.639222 12.269467 -4.525108 1.630082 128.767323 -85.635784 -156.531347 -5.140672 10.613414 9.214983 -17.462563 -64.106293 7.553794 -36.798688 72.760408 -37.669021 -4.321425 -8.870530 -1.361653 -0.251875 0.870478 -0.099298 0.748960 -66.778105 14.224002 43.344167 64.928538 36.931078 -17.575649 -9.054579 3.545918 -0.269444 -1.212696 0.002365
-233.637554 57.760126 -80.254594 161.399101 -7.555050 0.708370 2.406672 7.335750 1.474434 0.101698 0.308380 0.037881 0.167420 0.599712 0.044093 2.020492 6.999039 0.652843 0.465910 15.100764 -0.991495 1.142075 -7.659433 -2.034818 2.865600 7.433992 1.021088 -0.722361 -7.791725 -8.867743 -72.191047 -83.349142 98.582715 -1.548129 7.185514 -27.198802 -5.426642 6.957321 -2.635905 12.304237 -4.562781 1.612078 128.709382 -85.635291 -156.487383 -5.140435 10.606553 9.204490 -17.518549 -64.084309 7.598236 -36.825970 72.762865 -37.686450 -4.323316 -8.877223 -1.377706 -0.246206 0.867347 -0.102866 0.773658 -66.770321 14.242929 43.296609 64.945816 36.878030 -17.606746 -9.012520 3.548316 -0.258272 -1.207914 0.001568
-233.636842 57.759183 -80.255203 161.405960 -7.561800 0.709702 2.403881 7.313156 1.484359 0.102692 0.306578 0.037485 0.162422 0.622045 0.036313 2.033872 6.897020 0.678568 0.501255 15.169951 -1.000893 1.197806 -7.619719 -2.048264 2.844526 7.500944 1.010645 -0.729389 -7.775332 -8.867555 -72.598830 -83.360284 98.978810 -1.552909 7.217460 -27.179221 -5.423797 7.013969 -2.651432 12.307487 -4.544948 1.601548 129.169943 -85.600072 -156.928112 -5.141132 10.597556 9.195165 -17.544045 -64.078592 7.606435 -36.826947 72.770359 -37.685475 -4.328284 -8.885435 -1.388637 -0.238658 0.867993 -0.102240 0.789668 -66.764023 14.232652 43.305455 64.940152 36.871304 -17.609960 -8.976617 3.562447 -0.242938 -1.151655 -0.043806
-233.638616 57.757855 -80.253856 161.431119 -7.556832 0.724270 2.381918 7.278945 1.478174 0.103777 0.307148 0.035634 0.160106 0.615913 0.038237 2.033822 6.894337 0.676035 0.538531 15.183791 -0.995801 1.264642 -7.585621 -2.056364 2.836535 7.505950 1.014144 -0.749877 -7.792601 -8.857618 -72.762647 -83.369424 99.146583 -1.558251 7.202214 -27.174209 -5.413107 7.016058 -2.645104 12.315829 -4.541613 1.592872 129.575871 -85.568631 -157.308659 -5.141112 10.589930 9.186307 -17.557393 -64.089862 7.584231 -36.830455 72.778314 -37.683762 -4.343377 -8.900513 -1.403351 -0.228769 0.875179 -0.098264 0.824043 -66.770289 14.183761 43.343229 64.920161 36.873427 -17.602462 -8.914994 3.579371 -0.280173 -1.178420 -0.047786
-233.638978 57.756979 -80.255501 161.432127 -7.575034 0.744388 2.391675 7.245577 1.477492 0.094306 0.339131 0.024813 0.162812 0.603835 0.041150 2.037164 6.886765 0.675942 0.568556 15.206980 -0.991323 1.328241 -7.547988 -2.061068 2.822938 7.534886 1.012428 -0.784067 -7.863151 -8.832217 -72.574904 -83.376186 98.976300 -1.559847 7.183702 -27.164941 -5.399455 7.015002 -2.633427 12.343863 -4.557708 1.581133 129.664115 -85.555904 -157.392676 -5.139098 10.583940 9.179517 -17.564880 -64.080371 7.558280 -36.778198 72.799997 -37.638329 -4.329519 -8.906703 -1.413207 -0.230893 0.873448 -0.104651 0.905427 -66.753382 14.116881 43.331629 64.920934 36.852076 -17.605015 -8.869679 3.574368 -0.282847 -1.197644 -0.037848
